<svg xmlns="http://www.w3.org/2000/svg" viewBox="0 0 381.62 58.54"><defs><style>.cls-1{fill:#fff;}</style></defs><title>banAsset 3</title><g id="Layer_2" data-name="Layer 2"><g id="Layer_1-2" data-name="Layer 1"><path class="cls-1" d="M33.65,50q0,8.58-12.71,8.59T8.15,50V35.31a7.64,7.64,0,0,1-1.49.18,6.36,6.36,0,0,1-4.73-2A6.58,6.58,0,0,1,0,28.74,6.3,6.3,0,0,1,1.93,24.1a6.4,6.4,0,0,1,4.73-1.93,6.65,6.65,0,0,1,4.95,2,7,7,0,0,1,2,5.09V50c0,1.17.79,2.11,2.37,2.81a12.17,12.17,0,0,0,5,1,12,12,0,0,0,4.91-1c1.58-.7,2.37-1.64,2.37-2.81V22.87h5.43Zm-24-21.12a2.83,2.83,0,0,0-.88-2.1,2.83,2.83,0,0,0-2.1-.88,2.83,2.83,0,0,0-2.1.88,2.95,2.95,0,0,0,0,4.2,2.83,2.83,0,0,0,2.1.88,2.83,2.83,0,0,0,2.1-.88A2.83,2.83,0,0,0,9.64,28.83Z"/><path class="cls-1" d="M39,2a29.76,29.76,0,0,1-2.45,7.8,14.08,14.08,0,0,1-4,5,15.12,15.12,0,0,1-5.74,2.68,33,33,0,0,1-7.58.78H16.3v-3.5a4.37,4.37,0,0,0,2.93-1.23,6.61,6.61,0,0,0,1.63-2.28,5.33,5.33,0,0,1-3.47-1.93,6,6,0,0,1-1.27-3.85,5.13,5.13,0,0,1,1.71-3.94,5.67,5.67,0,0,1,4-1.58,5.26,5.26,0,0,1,4.12,1.66,6.1,6.1,0,0,1,1.49,4.21,10.51,10.51,0,0,1-1.23,4.91,15.06,15.06,0,0,1-2.54,3.68,11.49,11.49,0,0,0,7.14-4.25A13.62,13.62,0,0,0,33.74,2ZM24,5.69a2.2,2.2,0,0,0-.66-1.62,2.23,2.23,0,0,0-1.62-.65,2.1,2.1,0,0,0-1.58.65,2.33,2.33,0,0,0-.61,1.62,2.34,2.34,0,0,0,.61,1.63A2.1,2.1,0,0,0,21.73,8a2.23,2.23,0,0,0,1.62-.65A2.21,2.21,0,0,0,24,5.69Z"/><path class="cls-1" d="M63.09,57.83H57.66V32.33a5.16,5.16,0,0,0-1.67-4,6.43,6.43,0,0,0-4.55-1.54,6.29,6.29,0,0,0-4.74,1.93,7.14,7.14,0,0,0-1.92,4.91H39.52A12,12,0,0,1,43,25.28a11.62,11.62,0,0,1,8.46-3.11,13.5,13.5,0,0,1,8.28,2.5q3.38,2.49,3.37,7.58Z"/><path class="cls-1" d="M101,41.27c0,2.34-.62,3.94-1.85,4.82a6.71,6.71,0,0,1,1.49,10.56,6.67,6.67,0,0,1-9,.26,6.45,6.45,0,0,1-2.19-4.07c-1.87.93-3.22,1.63-4,2.1a12.48,12.48,0,0,0-3.33,2.89H76.59V35.31a7.73,7.73,0,0,1-1.49.18,6.4,6.4,0,0,1-4.74-2,6.61,6.61,0,0,1-1.92-4.78,6.33,6.33,0,0,1,1.92-4.64,6.44,6.44,0,0,1,4.74-1.93,6.66,6.66,0,0,1,5,2,7,7,0,0,1,2,5.09V51.52a34.52,34.52,0,0,1,6.31-3.06,17.74,17.74,0,0,0,6-3.68,6.08,6.08,0,0,0,1.22-4.21V22.87H101Zm-23-12.44a3,3,0,1,0-.88,2.1A2.87,2.87,0,0,0,78.08,28.83ZM98.93,52a2.83,2.83,0,0,0-.88-2.1,2.95,2.95,0,0,0-4.2,0A3,3,0,1,0,98.93,52Z"/><path class="cls-1" d="M135.3,57.83h-5.44V34.61a7.52,7.52,0,0,0-2.19-5.69,8,8,0,0,0-5.78-2.11,8.76,8.76,0,0,0-8,4.47,8,8,0,0,1,5.87,3.94q-4.47,2.64-4.47,6.31v16.3h-5.44V41.18a6.44,6.44,0,0,1,3.6-5.78,7.42,7.42,0,0,0-5.35-1,11.88,11.88,0,0,1,4.21-8.94,13.67,13.67,0,0,1,9.38-3.24q6.3,0,9.94,3.37a11.9,11.9,0,0,1,3.64,9.16Z"/><path class="cls-1" d="M138.8,9.72a7.07,7.07,0,0,1-2.15,5.22,7.06,7.06,0,0,1-5.21,2.14,7.2,7.2,0,0,1-5.3-2.14A7.11,7.11,0,0,1,124,9.72a7.16,7.16,0,0,1,2.19-5.25,7.18,7.18,0,0,1,5.26-2.19,7.06,7.06,0,0,1,5.21,2.14A7.19,7.19,0,0,1,138.8,9.72Zm-3.85,0a3.51,3.51,0,0,0-1-2.53,3.29,3.29,0,0,0-2.5-1.06,3.6,3.6,0,0,0-3.59,3.59,3.31,3.31,0,0,0,1.05,2.5,3.55,3.55,0,0,0,2.54,1A3.45,3.45,0,0,0,135,9.72Zm29.79,48.11h-5.43V32.33a5.16,5.16,0,0,0-1.67-4,6.44,6.44,0,0,0-4.56-1.54,6.29,6.29,0,0,0-4.73,1.93,7.09,7.09,0,0,0-1.92,4.91h-5.26a12,12,0,0,1,3.46-8.37,11.62,11.62,0,0,1,8.45-3.11,13.53,13.53,0,0,1,8.29,2.5c2.24,1.66,3.37,4.19,3.37,7.58Z"/><path class="cls-1" d="M203.12,57.83h-5.43V38.38c0-1.58-.32-2.37-1-2.37-.46,0-1.14.74-2,2.2L183.32,57.83h-5.09V35.31a7.55,7.55,0,0,1-1.48.18,6.38,6.38,0,0,1-4.74-2,6.62,6.62,0,0,1-1.93-4.78A6.34,6.34,0,0,1,172,24.1a6.43,6.43,0,0,1,4.74-1.93,6.66,6.66,0,0,1,4.95,2,7,7,0,0,1,2,5.09V42.32a78.19,78.19,0,0,1-1.06,9.29,26.68,26.68,0,0,1,2.63-6.92l4.82-8.33c1.06-1.75,2-2.74,2.81-3a7.16,7.16,0,0,1-1.75-4.55,6.66,6.66,0,1,1,13.31,0A6.61,6.61,0,0,1,202,33.91a10.1,10.1,0,0,1,1.14,4.73Zm-23.4-29a3,3,0,1,0-.87,2.1A2.86,2.86,0,0,0,179.72,28.83Zm21,0a3,3,0,1,0-.87,2.1A2.86,2.86,0,0,0,200.75,28.83Z"/><path class="cls-1" d="M241.06,41.27c0,2.34-.61,3.94-1.84,4.82a6.71,6.71,0,0,1,1.49,10.56,6.62,6.62,0,0,1-11.21-3.81c-1.88.93-3.22,1.63-4,2.1a12.58,12.58,0,0,0-3.32,2.89h-5.53V35.31a7.56,7.56,0,0,1-1.49.18,6.38,6.38,0,0,1-4.73-2,6.62,6.62,0,0,1-1.93-4.78,6.34,6.34,0,0,1,1.93-4.64,6.42,6.42,0,0,1,4.73-1.93,6.67,6.67,0,0,1,5,2,7,7,0,0,1,2,5.09V51.52a34.17,34.17,0,0,1,6.31-3.06,17.57,17.57,0,0,0,6-3.68,6,6,0,0,0,1.23-4.21V22.87h5.43ZM218.11,28.83a3,3,0,1,0-.88,2.1A2.87,2.87,0,0,0,218.11,28.83ZM239,52a2.83,2.83,0,0,0-.88-2.1,2.95,2.95,0,0,0-4.2,0A3,3,0,1,0,239,52Z"/><path class="cls-1" d="M276.55,57.83h-5.43V34.35a6.78,6.78,0,0,0-2.5-5.43,8.85,8.85,0,0,0-5.91-2.11,9.16,9.16,0,0,0-6.4,2.5,7.87,7.87,0,0,0-2.72,6A19.94,19.94,0,0,0,255,41.53a20.16,20.16,0,0,1,1.44,6,10.37,10.37,0,0,1-.17,1.67,30.73,30.73,0,0,1,5.7-6.93,5.16,5.16,0,0,1-3.86-1.92,5.37,5.37,0,0,1-1.31-3.68,5.46,5.46,0,0,1,1.7-4A5.57,5.57,0,0,1,262.62,31a5.41,5.41,0,0,1,4,1.71,5.55,5.55,0,0,1,1.67,4c0,2.62-1.29,5.55-3.86,8.76a89.68,89.68,0,0,0-6,7.89,8.81,8.81,0,0,0-1.31,4.46h-5.52c.06-2.16.09-4.14.09-6a19.76,19.76,0,0,0-1.06-7.27c-.52-1.52-1.05-3.08-1.57-4.69a13.73,13.73,0,0,1-.79-4.25,12.52,12.52,0,0,1,4.16-9.72,14.52,14.52,0,0,1,10.12-3.77,15.14,15.14,0,0,1,9.9,3.15,11.53,11.53,0,0,1,4.12,9.38Zm-11.3-21.11a2.63,2.63,0,1,0-4.51,1.88,2.63,2.63,0,0,0,4.51-1.88Z"/><path class="cls-1" d="M312.91,49.6a8.29,8.29,0,0,1-2.67,6.61,11.85,11.85,0,0,1-14.11,0,8.29,8.29,0,0,1-2.67-6.61V43.9c0-1.69.78-4,2.33-6.79s2.32-5.07,2.32-6.7a4.4,4.4,0,0,0-1.4-3.34,4.64,4.64,0,0,0-3.25-1.31c-1.87,0-3.12.38-3.77,1.14A6.19,6.19,0,0,1,294,28.56a5.4,5.4,0,0,1,1.62,4A6,6,0,0,1,293.73,37a6.06,6.06,0,0,1-4.39,1.8,5.91,5.91,0,0,1-4.77-2.15,7.84,7.84,0,0,1-1.8-5.21A8.26,8.26,0,0,1,286,24.8a11.27,11.27,0,0,1,7.4-2.63,11.48,11.48,0,0,1,7.15,2.1,7.24,7.24,0,0,1,2.76,6.14c0,1.75-.74,4.2-2.19,7.35s-2.19,5.38-2.19,6.67v6.39a2.49,2.49,0,0,0,1.35,2.28,5.74,5.74,0,0,0,2.94.79,5.5,5.5,0,0,0,3-.83,2.56,2.56,0,0,0,1.31-2.24V36.36c0-2.16-.84-3.5-2.54-4a7.73,7.73,0,0,0,.09-3.06q4.47-1.66,4.47-8.42h5.43q-.62,6.75-4.64,9.91a6.72,6.72,0,0,1,2.62,5.52ZM292.06,32.77a2.7,2.7,0,1,0-.79,1.93A2.62,2.62,0,0,0,292.06,32.77Z"/><path class="cls-1" d="M313.09,18.4a65.15,65.15,0,0,0-19.89-3.51,67.28,67.28,0,0,0-8.33.53q1.06-11.74,12.8-11.74,6.22,0,10,3.41v-6h5.25V17.17C313,17.58,313,18,313.09,18.4Zm-5.61-5.17a7.53,7.53,0,0,0-3.15-4.12,9.87,9.87,0,0,0-6-1.92,11.06,11.06,0,0,0-5.43,1.26,5.72,5.72,0,0,0-2.9,3.38,22.53,22.53,0,0,1,4.65-.35A47.48,47.48,0,0,1,307.48,13.23Z"/><path class="cls-1" d="M346.13,51.44a6.74,6.74,0,0,1-2,5,6.84,6.84,0,0,1-5,2,6.44,6.44,0,0,1-4.74-1.93,6.36,6.36,0,0,1-1.93-4.65,6.59,6.59,0,0,1,6.67-6.66,12.93,12.93,0,0,1,1.57.09V32.42q0-5.61-8.06-5.61A8.23,8.23,0,0,0,327,28.87a7,7,0,0,0-2.32,5.48H319.4c.18-3.86,1.44-6.85,3.81-9s5.51-3.2,9.42-3.2,6.95.76,9.29,2.28q4.2,2.72,4.21,8.32Zm-4,.35a3,3,0,1,0-6,0,2.88,2.88,0,0,0,.87,2.1,3,3,0,0,0,5.09-2.1Z"/><path class="cls-1" d="M346.3,18.4a65.15,65.15,0,0,0-19.89-3.51,67.28,67.28,0,0,0-8.33.53q1.07-11.74,12.8-11.74,6.75,0,10.69,4.07A17.85,17.85,0,0,1,346.3,18.4Zm-5.61-5.17a7.53,7.53,0,0,0-3.15-4.12,9.85,9.85,0,0,0-6-1.92,11.06,11.06,0,0,0-5.43,1.26,5.72,5.72,0,0,0-2.9,3.38,22.6,22.6,0,0,1,4.65-.35A47.48,47.48,0,0,1,340.69,13.23Z"/><path class="cls-1" d="M381.62,57.83h-5.44v-23q0-5.59-3.07-8.06l-5.43,4-5.34-4q-3.69,1.85-3.68,8.33a23.24,23.24,0,0,0,1.27,6.22,23.54,23.54,0,0,1,1.27,6.13,8.64,8.64,0,0,1-.53,2.89A14.37,14.37,0,0,1,363.21,47a19.14,19.14,0,0,1,3.86-3.33,5.09,5.09,0,0,1-3.73-1.84A5.71,5.71,0,0,1,362,38.12a5.6,5.6,0,0,1,1.62-4,5.38,5.38,0,0,1,4-1.66,5.67,5.67,0,0,1,5.69,5.7q0,3.77-3.94,8-5.27,5.61-6.14,7.28a10,10,0,0,0-1.31,4.46h-5.52c.12-2.22.18-4.46.18-6.74a19.17,19.17,0,0,0-1.06-6.49c-1.46-4.2-2.19-7.36-2.19-9.46a14.41,14.41,0,0,1,2.41-8.33,11.87,11.87,0,0,1,6.88-4.73l5,3.77,4.64-3.77q9.38,1.41,9.38,12.62ZM370.22,38a2.53,2.53,0,0,0-2.62-2.63A2.53,2.53,0,0,0,365,38a2.66,2.66,0,0,0,4.51,1.88A2.52,2.52,0,0,0,370.22,38Z"/></g></g></svg>