<svg id="Layer_1" data-name="Layer 1" xmlns="http://www.w3.org/2000/svg" viewBox="0 0 88.62 98.18"><defs><style>.cls-1{fill:#fff;}.cls-2{fill:#231f20;}.cls-3{fill:none;stroke:#231f20;stroke-miterlimit:10;}</style></defs><title>logo-3</title><path class="cls-1" d="M190.58,227.08" transform="translate(-192.89 -401.37)"/><path class="cls-2" d="M200.11,413.84a9.68,9.68,0,0,0,1,6.5h0l-3.77-.73c2.77-1.12,5.39-2.4,8-3.64l7.83-3.77a42.08,42.08,0,0,0,7.28-4.24,36.24,36.24,0,0,0,6.21-5.65h0l.82-.93,1.22.69a92.76,92.76,0,0,1,25.05,20.6h0L252.2,422a6.46,6.46,0,0,0,4-1.7,5.44,5.44,0,0,0,1.28-1.63,3.16,3.16,0,0,0,.18-2.19l6.92,4.55c-1.19.63-2.18,1.25-3.17,1.81a18.51,18.51,0,0,1-2.92,1.46,22.42,22.42,0,0,1-5.95,1.35l-.92.1L251,425h0a89,89,0,0,0-24-19.95l2-.24h0c-2.37,1.79-4.74,3.52-7.2,5.1-1.23.8-2.48,1.56-3.75,2.3s-2.58,1.39-3.84,2.07a64.36,64.36,0,0,0-7.32,4.38,46.69,46.69,0,0,0-6.56,5.46l-1.63,1.68-2.14-2.4h0a16.38,16.38,0,0,1-2.67-4.62,15.69,15.69,0,0,1-1-5.46Z" transform="translate(-192.89 -401.37)"/><path class="cls-2" d="M207.92,423.63a24.67,24.67,0,0,0,9.63-1.51h0l2.57-1.16-.1,2.63-.68,18.33-2.26-1.43h0a18.65,18.65,0,0,1,5.39-1.86,33.42,33.42,0,0,1,5.51-.47c1.81,0,3.58.11,5.3.16s3.34-.07,4.73-.05l.87,2.09a5.79,5.79,0,0,1-2.89,1c-1,.08-1.87.09-2.76.09-1.79,0-3.52-.07-5.22,0a22.56,22.56,0,0,0-9.52,1.82h0l-2.32,1.13.07-2.55.5-18.33,2.48,1.46h0a29.08,29.08,0,0,1-10.53,4.76Z" transform="translate(-192.89 -401.37)"/><path class="cls-2" d="M241.07,420.17a39.23,39.23,0,0,0-1.11,6.32c-.23,2.13-.29,4.23-.31,6.37a54.18,54.18,0,0,0,.38,6.37c.27,2.1.67,4.22,1,6.39,1.41,8.6,2,17.67-.24,26.42-.25,1.09-.62,2.16-1,3.24s-.74,2.09-1.15,3.13a42.32,42.32,0,0,1-3,6,31.23,31.23,0,0,1-9.24,9.95,26,26,0,0,1-3,1.74c-.52.25-1,.51-1.57.73s-1,.42-1.53.64a28.9,28.9,0,0,1-6.63,1.83,20.47,20.47,0,0,1-7.06-.19,18.9,18.9,0,0,1-3.39-1.09,14.23,14.23,0,0,1-3.22-1.81,9.51,9.51,0,0,1-2.59-3,12.42,12.42,0,0,1-1.21-3.63,12.83,12.83,0,0,1,1-7.44,17.77,17.77,0,0,1,4.35-5.8,54.63,54.63,0,0,1,5.29-4.22,131.39,131.39,0,0,1,11.19-7c3.74-2.19,7.57-4.38,11.54-6.33a181.37,181.37,0,0,1,24.53-9.92c8.22-2.85,16.63-5.54,25.06-8.1l2.3,10.72a245.12,245.12,0,0,0-25.29,4.64c-4.19,1-8.31,2-12.35,3.26s-8.05,2.73-12,4.37-7.69,3.58-11.54,5.56a116.52,116.52,0,0,0-11,6.4,50.84,50.84,0,0,0-5,3.71,13.91,13.91,0,0,0-3.55,4.37,9,9,0,0,0-.87,5.22,8.27,8.27,0,0,0,.77,2.53,5.74,5.74,0,0,0,1.57,1.89,10.34,10.34,0,0,0,2.41,1.38,14.51,14.51,0,0,0,2.76.94,16.61,16.61,0,0,0,5.85.24,25.32,25.32,0,0,0,5.89-1.53l1.47-.59c.47-.19.93-.4,1.38-.62a24.58,24.58,0,0,0,2.63-1.52,28.14,28.14,0,0,0,8.29-8.93,39.26,39.26,0,0,0,2.79-5.58c.39-1,.75-1.95,1.09-3s.65-2,.88-3c2.08-8.11,1.61-16.73.24-25.15-.33-2.11-.74-4.25-1.06-6.43s-.68-4.35-1-6.54-.57-4.41-.83-6.6-.54-4.37-.95-6.67Z" transform="translate(-192.89 -401.37)"/><path class="cls-3" d="M230.35,443.66" transform="translate(-192.89 -401.37)"/><path class="cls-3" d="M235.56,430.09" transform="translate(-192.89 -401.37)"/><path class="cls-3" d="M249,475.59" transform="translate(-192.89 -401.37)"/><path class="cls-3" d="M204.13,394.79" transform="translate(-192.89 -401.37)"/><path class="cls-3" d="M280.36,484.56" transform="translate(-192.89 -401.37)"/><path class="cls-3" d="M274.27,475.59" transform="translate(-192.89 -401.37)"/><path class="cls-3" d="M125.88,432.7" transform="translate(-192.89 -401.37)"/><path class="cls-3" d="M271.88,419.34" transform="translate(-192.89 -401.37)"/></svg>