<svg xmlns="http://www.w3.org/2000/svg" viewBox="0 0 281.96 281.97"><defs><style>.cls-1{fill:#fff;}.cls-2{fill:#fff200;}.cls-3{fill:#8dc63f;}.cls-4{fill:#ed1c24;}.cls-5{fill:#00aeef;}</style></defs><title>logo-newAsset 1</title><g id="Layer_2" data-name="Layer 2"><g id="Layer_1-2" data-name="Layer 1"><path class="cls-1" d="M171.38,210.54l-.26,0-14.85-35.84A37,37,0,0,0,128,106.41L117.76,81.77l2.43-5.87L108.87,63.5l.76,16.78,5.9,2.44,10.19,24.62a37,37,0,0,0,28.3,68.3l14.84,35.83a3.89,3.89,0,0,0-1.44,3,4,4,0,1,0,4-4ZM145.2,154.66v-8.39h-8.33v8.39h-15v-22l19-11,19,11v22Z"/><rect class="cls-1" x="138.43" y="133.09" width="2.1" height="2.09"/><rect class="cls-1" x="141.38" y="133.09" width="2.1" height="2.09"/><rect class="cls-1" x="138.43" y="135.95" width="2.1" height="2.1"/><rect class="cls-1" x="141.38" y="135.95" width="2.1" height="2.1"/><path class="cls-1" d="M194.12,104.94a11,11,0,1,0-11,11A10.95,10.95,0,0,0,194.12,104.94Z"/><path class="cls-2" d="M196.94,259.07l4,9.56a140,140,0,0,0,37.95-26.15l-7.31-7.31A129.72,129.72,0,0,1,196.94,259.07Z"/><path class="cls-1" d="M85.14,22.94l-4-9.55A139.76,139.76,0,0,0,13.42,81.15l9.55,4A129.59,129.59,0,0,1,85.14,22.94Z"/><path class="cls-3" d="M271.61,143.6A130.93,130.93,0,0,1,264,184.94l9.57,4a141.61,141.61,0,0,0,8.4-45.3Z"/><path class="cls-1" d="M141,10.35a131,131,0,0,1,44,7.59l4-9.57A141.4,141.4,0,0,0,141,0,139.67,139.67,0,0,0,93.13,8.44l4,9.55A129.71,129.71,0,0,1,141,10.35Z"/><path class="cls-4" d="M18,97.06l-9.55-4a139.8,139.8,0,0,0,0,95.83L18,185A129.56,129.56,0,0,1,18,97.06Z"/><path class="cls-4" d="M143.63,271.61V282A139.78,139.78,0,0,0,189,273.58L185,264A129.57,129.57,0,0,1,143.63,271.61Z"/><path class="cls-5" d="M231.61,46.79l7.32-7.33a140.34,140.34,0,0,0-38-26.15l-4,9.56A130.27,130.27,0,0,1,231.61,46.79Z"/><path class="cls-4" d="M23,196.91l-9.57,4a140.61,140.61,0,0,0,67.72,67.85l4-9.57A130.3,130.3,0,0,1,23,196.91Z"/><path class="cls-3" d="M271.61,138.42H282a139.65,139.65,0,0,0-8.34-45.32l-9.56,4A129.81,129.81,0,0,1,271.61,138.42Z"/><path class="cls-2" d="M235.2,231.51l7.31,7.32a141.64,141.64,0,0,0,26.1-38l-9.57-4A131.35,131.35,0,0,1,235.2,231.51Z"/><path class="cls-4" d="M97.06,264.08l-4,9.57A141.38,141.38,0,0,0,138.45,282V271.63A131.25,131.25,0,0,1,97.06,264.08Z"/><path class="cls-5" d="M259.09,85.11l9.57-4a141,141,0,0,0-26.08-38l-7.32,7.32A130.84,130.84,0,0,1,259.09,85.11Z"/><path class="cls-3" d="M247.69,178.19l9.58,4a122.21,122.21,0,0,0,0-82.28l-9.58,4A112.08,112.08,0,0,1,247.69,178.19Z"/><path class="cls-4" d="M143.63,253.93v10.35a122.33,122.33,0,0,0,38.55-7l-4-9.58A112.31,112.31,0,0,1,143.63,253.93Z"/><path class="cls-2" d="M190.16,242.71l4,9.58A122.71,122.71,0,0,0,226.4,230l-7.32-7.32A112.6,112.6,0,0,1,190.16,242.71Z"/><path class="cls-2" d="M222.74,219.05l7.32,7.32a122.71,122.71,0,0,0,22.26-32.27l-9.58-4A112.71,112.71,0,0,1,222.74,219.05Z"/><path class="cls-1" d="M91.92,39.31l-4-9.58A122.29,122.29,0,0,0,29.76,87.92l9.58,4A112,112,0,0,1,91.92,39.31Z"/><path class="cls-4" d="M34.39,103.84l-9.58-4a122.58,122.58,0,0,0-7.07,38.56H28.09A112.48,112.48,0,0,1,34.39,103.84Z"/><path class="cls-1" d="M141,28a113.47,113.47,0,0,1,37.26,6.26l4-9.56a123.55,123.55,0,0,0-41.22-7,122.3,122.3,0,0,0-41.09,7.1l4,9.58A112.1,112.1,0,0,1,141,28Z"/><path class="cls-4" d="M103.84,247.73l-4,9.57a123.63,123.63,0,0,0,38.59,7V254A113.55,113.55,0,0,1,103.84,247.73Z"/><path class="cls-4" d="M28.09,143.6H17.74a123,123,0,0,0,7.07,38.55l9.59-4A112.19,112.19,0,0,1,28.09,143.6Z"/><path class="cls-4" d="M63,222.72l-7.33,7.33a122.83,122.83,0,0,0,32.26,22.31l4-9.58A112.27,112.27,0,0,1,63,222.72Z"/><path class="cls-5" d="M242.74,91.89l9.57-4a123,123,0,0,0-58.14-58.26l-4,9.58A112.69,112.69,0,0,1,242.74,91.89Z"/><path class="cls-4" d="M39.35,190.13l-9.57,4A123.42,123.42,0,0,0,52,226.39l7.32-7.32A113.22,113.22,0,0,1,39.35,190.13Z"/><path class="cls-4" d="M75.53,210.18l-7.36,7.36A105.63,105.63,0,0,0,94.7,236l4-9.61A94.77,94.77,0,0,1,75.53,210.18Z"/><path class="cls-4" d="M55.71,183.35l-9.58,4a105.77,105.77,0,0,0,18.38,26.56l7.33-7.33A95.4,95.4,0,0,1,55.71,183.35Z"/><path class="cls-4" d="M50.76,110.62l-9.58-4a104.72,104.72,0,0,0,0,68.72l9.59-4A94.34,94.34,0,0,1,50.76,110.62Z"/><path class="cls-4" d="M110.64,231.3l-4,9.64a106,106,0,0,0,31.81,5.67V236.22A95.54,95.54,0,0,1,110.64,231.3Z"/><path class="cls-4" d="M143.63,236.25V246.6a104.72,104.72,0,0,0,31.77-5.73l-4-9.58A94.48,94.48,0,0,1,143.63,236.25Z"/><path class="cls-5" d="M226.37,98.66l9.59-4A105.37,105.37,0,0,0,187.38,46l-4,9.62A94.93,94.93,0,0,1,226.37,98.66Z"/><path class="cls-1" d="M71.85,75.48l-7.32-7.32A104.84,104.84,0,0,0,46.13,94.7l9.58,4A94.8,94.8,0,0,1,71.85,75.48Z"/><path class="cls-1" d="M141,45.71a95.33,95.33,0,0,1,30.44,5l4-9.63A106,106,0,0,0,141,35.36a104.76,104.76,0,0,0-34.32,5.79l4,9.58A94.46,94.46,0,0,1,141,45.71Z"/><path class="cls-1" d="M98.7,55.68l-4-9.58A105,105,0,0,0,68.19,64.5l7.32,7.32A94.8,94.8,0,0,1,98.7,55.68Z"/><path class="cls-3" d="M236.31,138.42h10.35a105.2,105.2,0,0,0-5.76-31.77l-9.58,4A94.8,94.8,0,0,1,236.31,138.42Z"/><path class="cls-2" d="M183.38,226.34l4,9.58a104.72,104.72,0,0,0,48.6-48.6l-9.58-4A94.41,94.41,0,0,1,183.38,226.34Z"/><path class="cls-3" d="M231.32,171.41l9.58,4a105.32,105.32,0,0,0,5.76-31.78H236.31A94.93,94.93,0,0,1,231.32,171.41Z"/></g></g></svg>