<svg xmlns="http://www.w3.org/2000/svg" viewBox="0 0 79.13 86.52"><defs><style>.cls-1{fill:#231f20;}</style></defs><title>Asset 1</title><g id="Layer_2" data-name="Layer 2"><g id="Layer_1-2" data-name="Layer 1"><path class="cls-1" d="M7.22,12.47a9.68,9.68,0,0,0,1,6.5h0l-3.77-.73c2.77-1.12,5.39-2.41,8-3.64l7.83-3.77a42.08,42.08,0,0,0,7.28-4.24A36.24,36.24,0,0,0,33.77.94h0L34.59,0l1.22.69a92.76,92.76,0,0,1,25,20.6h0l-1.55-.64a6.46,6.46,0,0,0,4-1.7,5.44,5.44,0,0,0,1.28-1.63,3.17,3.17,0,0,0,.18-2.19l6.92,4.55c-1.19.63-2.18,1.25-3.17,1.81A18.51,18.51,0,0,1,65.57,23a22.42,22.42,0,0,1-5.95,1.35l-.92.1-.63-.74h0a89,89,0,0,0-24-19.95l2-.24h0c-2.37,1.79-4.74,3.52-7.2,5.1-1.23.8-2.48,1.56-3.75,2.3s-2.58,1.39-3.84,2.07A64.36,64.36,0,0,0,14,17.32a46.69,46.69,0,0,0-6.56,5.46L5.82,24.46l-2.13-2.4h0A16.38,16.38,0,0,1,1,17.43,15.69,15.69,0,0,1,0,12Z"/><path class="cls-1" d="M18.1,23a20,20,0,0,0,7.87-1h0l2.58-1.28-.1,2.75-.66,17.32h0l-2.68-1.11c2.53-2.62,5.1-5.2,7.77-7.7,1.33-1.25,2.69-2.48,4.11-3.66a22,22,0,0,1,4.79-3.25l.87,2.09a20.67,20.67,0,0,0-4,3C37.29,31.43,36,32.68,34.75,34c-2.52,2.56-5,5.2-7.37,7.89l-2.68,3V40.74h0l.46-17.33,2.48,1.47h0a24.49,24.49,0,0,1-8.77,4.22Z"/><path class="cls-1" d="M46.14,20.71a28.33,28.33,0,0,0-1.09,5.19,51,51,0,0,0-.36,5.24A38.4,38.4,0,0,0,45,36.39c.21,1.73.54,3.47.83,5.26,1.16,7.12,1.64,14.65-.21,21.93-.21.91-.51,1.8-.79,2.7s-.61,1.73-.95,2.6a36.11,36.11,0,0,1-2.5,5,26.1,26.1,0,0,1-7.7,8.31,23.9,23.9,0,0,1-2.5,1.45c-.87.44-1.75.8-2.58,1.14A23.91,23.91,0,0,1,23,86.34a17.41,17.41,0,0,1-5.93-.15,17.38,17.38,0,0,1-2.86-.92,11.49,11.49,0,0,1-2.73-1.53,8,8,0,0,1-2.23-2.6A10.8,10.8,0,0,1,9,71.71a15.1,15.1,0,0,1,3.67-4.91,46.15,46.15,0,0,1,4.39-3.53c3-2.14,6.13-4.05,9.25-5.85s6.25-3.66,9.54-5.3a155.68,155.68,0,0,1,20.27-8.39c6.76-2.42,13.72-4.74,20.67-7l2.3,10.72A190.4,190.4,0,0,0,58.23,51c-3.46.77-6.86,1.58-10.19,2.58s-6.64,2.19-9.86,3.51S31.84,60,28.66,61.62a92.26,92.26,0,0,0-9.1,5.23,41.18,41.18,0,0,0-4.09,3,11.23,11.23,0,0,0-2.87,3.48,7.18,7.18,0,0,0-.7,4.12,6.22,6.22,0,0,0,.59,2,4.4,4.4,0,0,0,1.21,1.46,11.62,11.62,0,0,0,4.14,1.87,13.6,13.6,0,0,0,4.73.2,20.33,20.33,0,0,0,4.8-1.24c.82-.32,1.61-.62,2.33-1a17.51,17.51,0,0,0,2.14-1.24,23,23,0,0,0,6.77-7.29,33.45,33.45,0,0,0,2.28-4.56c.32-.79.62-1.6.89-2.43s.54-1.62.73-2.45c1.7-6.64,1.32-13.72.19-20.65L40.94,31.42c-.31-1.81-.53-3.65-.78-5.47s-.55-3.62-1-5.54Z"/></g></g></svg>