<svg xmlns="http://www.w3.org/2000/svg" viewBox="0 0 275.82 26.34"><defs><style>.cls-1{opacity:0.5;}.cls-2{fill:#fff;}</style></defs><title>banAsset 4</title><g id="Layer_2" data-name="Layer 2"><g id="Layer_1-2" data-name="Layer 1"><g class="cls-1"><path class="cls-2" d="M10.52,16.73a2.76,2.76,0,0,1-.9,2.21,3.41,3.41,0,0,1-2.35.77,3.45,3.45,0,0,1-2.35-.77A2.78,2.78,0,0,1,4,16.73V15.42A5.13,5.13,0,0,1,5,13a5,5,0,0,0,1-2.41A1.94,1.94,0,0,0,5.05,9L4,10.1,2.69,8.94a2.14,2.14,0,0,0-.63.62,1.73,1.73,0,0,0-.37.81,3.72,3.72,0,0,1,.62-.09,2,2,0,0,1,1.49.61,2.14,2.14,0,0,1,0,3,2,2,0,0,1-1.5.62,2,2,0,0,1-1.67-.85A3,3,0,0,1,0,11.8,5.06,5.06,0,0,1,.83,9,2.81,2.81,0,0,1,3,7.59l1,1,.91-1a3,3,0,0,1,2.63,3.1A5,5,0,0,1,6.66,13a4.8,4.8,0,0,0-.82,2.21v2a.83.83,0,0,0,.45.76,1.92,1.92,0,0,0,2,0,.86.86,0,0,0,.43-.75V12.32A1.23,1.23,0,0,0,7.86,11a2.71,2.71,0,0,0,0-1c1-.37,1.49-1.31,1.49-2.81h1.81a4.55,4.55,0,0,1-1.55,3.31,2.23,2.23,0,0,1,.88,1.83ZM3.21,12.38A.84.84,0,0,0,3,11.74a.86.86,0,0,0-.64-.26.87.87,0,0,0-.65.26.88.88,0,0,0-.26.64A.91.91,0,0,0,3,13,.87.87,0,0,0,3.21,12.38Z"/><path class="cls-2" d="M10.57,6.34A21.68,21.68,0,0,0,3.94,5.17a21.68,21.68,0,0,0-2.77.17q.35-3.91,4.26-3.91A4.73,4.73,0,0,1,9,2.79,6,6,0,0,1,10.57,6.34ZM8.7,4.61a2.46,2.46,0,0,0-1-1.37,3.23,3.23,0,0,0-2-.64A3.71,3.71,0,0,0,3.85,3a1.92,1.92,0,0,0-1,1.13A7.23,7.23,0,0,1,4.44,4,15.8,15.8,0,0,1,8.7,4.61Z"/><path class="cls-2" d="M23.16,14a1.86,1.86,0,0,1-.61,1.61,2.23,2.23,0,0,1,.5,3.51,2.14,2.14,0,0,1-1.55.63A2.12,2.12,0,0,1,20,19.18a2.16,2.16,0,0,1-.73-1.36c-.63.31-1.07.54-1.35.7a4.42,4.42,0,0,0-1.11,1H15V12a2.49,2.49,0,0,1-.49.06,2.14,2.14,0,0,1-1.58-.65,2.19,2.19,0,0,1-.64-1.6,2.11,2.11,0,0,1,.64-1.55,2.17,2.17,0,0,1,1.58-.64,2.25,2.25,0,0,1,1.65.67,2.33,2.33,0,0,1,.65,1.7v7.42a10.79,10.79,0,0,1,2.11-1,5.82,5.82,0,0,0,2-1.23,2,2,0,0,0,.41-1.4V7.83h1.81ZM15.51,9.81a1,1,0,0,0-1-1,1,1,0,0,0-1,1,1,1,0,0,0,1,1,1,1,0,0,0,1-1Zm7,7.71a1,1,0,0,0-1-1,1,1,0,0,0-.7.29.94.94,0,0,0-.29.7,1,1,0,0,0,1,1,1,1,0,0,0,.7-.3A1,1,0,0,0,22.46,17.52Z"/><path class="cls-2" d="M30.61,17.49a2.2,2.2,0,0,1-2.22,2.22A2.23,2.23,0,0,1,26.73,19a2.28,2.28,0,0,1-.67-1.69V7.83h1.81v7.5a1.51,1.51,0,0,1,.52-.06,2.17,2.17,0,0,1,1.57.65A2.12,2.12,0,0,1,30.61,17.49Zm-1.23,0a.94.94,0,0,0-.29-.7,1,1,0,0,0-.7-.29,1,1,0,0,0,0,2,1,1,0,0,0,.7-.29A1,1,0,0,0,29.38,17.49Zm6.69,0a2.2,2.2,0,0,1-2.22,2.22A2.25,2.25,0,0,1,32.19,19a2.28,2.28,0,0,1-.67-1.69V7.83h1.81v7.5a1.51,1.51,0,0,1,.52-.06,2.17,2.17,0,0,1,1.57.65A2.12,2.12,0,0,1,36.07,17.49Zm-1.22,0a1,1,0,0,0-1-1,1,1,0,0,0,0,2,1,1,0,0,0,1-1Z"/><path class="cls-2" d="M46.35,19.48H44.54V14.43a1.46,1.46,0,0,0-1-1.35,4.07,4.07,0,0,0-1.7-.35,2.68,2.68,0,0,0-1.54.44,1.61,1.61,0,0,0-.79,1.4v.73a4,4,0,0,1,.53-.05,2.2,2.2,0,0,1,1.6.65,2.1,2.1,0,0,1,.67,1.56,2,2,0,0,1-.7,1.58,2.28,2.28,0,0,1-1.6.64,2.34,2.34,0,0,1-1.64-.62,2.08,2.08,0,0,1-.67-1.6V14.78A3.18,3.18,0,0,1,39,12.09a4.6,4.6,0,0,1,2.84-.85,3.45,3.45,0,0,1,2.71,1V10.92a1.54,1.54,0,0,0-1-1.4,4.35,4.35,0,0,0-1.84-.38,3.51,3.51,0,0,0-1.95.53,2.29,2.29,0,0,0-1.09,1.57H36.86A3.64,3.64,0,0,1,38.41,8.5a5.57,5.57,0,0,1,3.3-.91,5.83,5.83,0,0,1,2.37.47,1.81,1.81,0,0,0,.61-1.4h2.05A4.39,4.39,0,0,1,45.48,9a3.11,3.11,0,0,1,.87,2.17Zm-5.31-2a1,1,0,1,0-.29.71A1,1,0,0,0,41,17.46Z"/><path class="cls-2" d="M57.6,16.85a2.4,2.4,0,0,1-1.37,2.25,5.9,5.9,0,0,1-2.87.61,5.68,5.68,0,0,1-2.83-.61,2.42,2.42,0,0,1-1.31-2.25V14.46a2.69,2.69,0,0,1,.58-1.77A2,2,0,0,1,51.47,12,2.14,2.14,0,0,1,53,12.6a2.21,2.21,0,0,1,0,3.11,2.12,2.12,0,0,1-1.57.65A1.66,1.66,0,0,1,51,16.3v.35c0,1,.79,1.52,2.36,1.52s2.4-.52,2.4-1.55V10.84a10.76,10.76,0,0,1-3.27.43c-2.48,0-3.71-.51-3.71-1.55q0-2.16,4.29-2.16A5.16,5.16,0,0,1,56.55,8.7a4.59,4.59,0,0,0,.38-1.14h1.75a5.27,5.27,0,0,1-1.2,2.66,3.43,3.43,0,0,1,.12,1Zm-5.14-2.69a1,1,0,0,0-.3-.7,1,1,0,0,0-1.39,0,1,1,0,0,0,.7,1.7.94.94,0,0,0,.69-.29A1,1,0,0,0,52.46,14.16Zm2.95-4.49a3.7,3.7,0,0,0-2.57-.79c-1.56,0-2.34.24-2.34.73,0,.31.72.47,2.16.47A7.48,7.48,0,0,0,55.41,9.67Z"/><path class="cls-2" d="M68.67,17.35a2.26,2.26,0,0,1-2.34,2.33,2.2,2.2,0,0,1-1.57-3.76,2.12,2.12,0,0,1,1.57-.65,3.79,3.79,0,0,1,.53,0V11c0-1.25-.9-1.87-2.69-1.87a2.71,2.71,0,0,0-1.88.69,2.29,2.29,0,0,0-.78,1.82H59.76a4.09,4.09,0,0,1,1.27-3,4.53,4.53,0,0,1,3.14-1.07,5.67,5.67,0,0,1,3.1.76,3.09,3.09,0,0,1,1.4,2.78Zm-1.35.11a1,1,0,0,0-.28-.7,1,1,0,1,0,.28.7Z"/><path class="cls-2" d="M78,19.48H76.18l-5.47-6.16,1.09-1.26L76.15,17v-5a2.8,2.8,0,0,1-.56,0,2.17,2.17,0,0,1-1.53-.59,2,2,0,0,1-.63-1.54,2.19,2.19,0,0,1,.64-1.59,2.06,2.06,0,0,1,1.52-.66,2.34,2.34,0,0,1,1.7.66A2.27,2.27,0,0,1,78,10Zm-1.37-9.7a1,1,0,0,0-.3-.7,1,1,0,0,0-.7-.29,1,1,0,0,0-1,1,1,1,0,0,0,1,1,1,1,0,0,0,1-1Z"/><path class="cls-2" d="M89.35,17.44a2.06,2.06,0,0,1-.7,1.67,2.69,2.69,0,0,1-1.81.6,2.2,2.2,0,0,1-2.48-1.89l-.44-2.31a2.11,2.11,0,0,1-.73.12,2.06,2.06,0,0,1-1.46-3.54,2,2,0,0,1,1.46-.61,2,2,0,0,1,1.34.48,2,2,0,0,1,.73,1.21l.82,4.47c.06.35.3.53.73.53s.73-.2.73-.59V11a1.59,1.59,0,0,0-.91-1.46,3.92,3.92,0,0,0-1.87-.41c-1.67,0-2.67.48-3,1.43H80c.26-2,1.79-3,4.62-3a6.41,6.41,0,0,1,3.21.73,3.1,3.1,0,0,1,1.52,2.81Zm-5.26-3.89a.88.88,0,0,0-.26-.64.86.86,0,0,0-.64-.26.84.84,0,0,0-.64.26.91.91,0,0,0,.64,1.55.87.87,0,0,0,.64-.27A.88.88,0,0,0,84.09,13.55Z"/><path class="cls-2" d="M89.35,26.34H87.6V24.12h-.12a1.74,1.74,0,0,1-1.75-1.72,1.76,1.76,0,0,1,.51-1.26,1.69,1.69,0,0,1,1.27-.52,1.93,1.93,0,0,1,1.28.47,1.59,1.59,0,0,1,.56,1.28Zm-1-4a.78.78,0,0,0-.23-.55.77.77,0,0,0-.56-.24.81.81,0,0,0-.57.24.73.73,0,0,0-.25.55.75.75,0,0,0,.25.57.78.78,0,0,0,.57.25.75.75,0,0,0,.56-.25A.81.81,0,0,0,88.33,22.31Z"/><path class="cls-2" d="M91.13.87a9.71,9.71,0,0,1-.82,2.6A4.71,4.71,0,0,1,89,5.15a5.11,5.11,0,0,1-1.91.9,11.25,11.25,0,0,1-2.53.26h-1V5.14a1.5,1.5,0,0,0,1-.41A2.23,2.23,0,0,0,85.09,4a1.79,1.79,0,0,1-1.16-.64A2,2,0,0,1,83.51,2,1.71,1.71,0,0,1,84.08.73,1.9,1.9,0,0,1,85.41.2a1.75,1.75,0,0,1,1.37.56,2,2,0,0,1,.49,1.4,3.51,3.51,0,0,1-.4,1.63A5.13,5.13,0,0,1,86,5,3.82,3.82,0,0,0,88.4,3.61a4.57,4.57,0,0,0,1-2.74Zm-5,1.23a.75.75,0,0,0-.76-.76.72.72,0,0,0-.53.22.76.76,0,0,0-.2.54.72.72,0,0,0,.2.54.68.68,0,0,0,.53.22.75.75,0,0,0,.76-.76Z"/><path class="cls-2" d="M100.62,16.53q0,3.18-4.32,3.18T92,16.53V15.18a2,2,0,0,1,1.19-2,3,3,0,0,1-1.34-2.66,3.1,3.1,0,0,1,.72-2.11,2.44,2.44,0,0,1,2-.84A2.19,2.19,0,0,1,96,8.13a1.79,1.79,0,0,1,.61,1.42,1.95,1.95,0,0,1-2,2,2.07,2.07,0,0,1-.82-.15c.15.74.51,1.11,1.05,1.11h2.07V13.9H94.87a.91.91,0,0,0-.76.41,1.59,1.59,0,0,0-.29.94v1.34c0,1.05.83,1.58,2.48,1.58s2.51-.53,2.51-1.58V7.83h1.81Zm-5.05-7a.92.92,0,0,0-.26-.67,1,1,0,0,0-1.35,0,1,1,0,0,0,0,1.34,1,1,0,0,0,1.35,0A.92.92,0,0,0,95.57,9.58Z"/><path class="cls-2" d="M118.73,16.85a2.39,2.39,0,0,1-1.37,2.25,5.86,5.86,0,0,1-2.86.61,5.68,5.68,0,0,1-2.83-.61,2.41,2.41,0,0,1-1.32-2.25v-3a2.72,2.72,0,0,1,.59-1.77,2,2,0,0,1,1.66-.71,2.18,2.18,0,0,1,1.58.63,2.13,2.13,0,0,1,.64,1.56,2.19,2.19,0,0,1-2.22,2.19,1.42,1.42,0,0,1-.44-.06v.91c0,1,.79,1.52,2.37,1.52s2.39-.52,2.39-1.55V11a1.58,1.58,0,0,0-.9-1.46,4,4,0,0,0-1.87-.41c-1.85,0-2.85.48-3,1.43h-1.75c.25-2,1.79-3,4.61-3a6.42,6.42,0,0,1,3.22.73,3.09,3.09,0,0,1,1.51,2.81Zm-5.14-3.24a1,1,0,0,0-.29-.7.94.94,0,0,0-.7-.29,1,1,0,0,0,0,2,.94.94,0,0,0,.7-.29A1,1,0,0,0,113.59,13.61Z"/><path class="cls-2" d="M124.14,18.34a1.4,1.4,0,0,1-1.41,1.4,1.33,1.33,0,0,1-1-.41,1.4,1.4,0,0,1,0-2,1.37,1.37,0,0,1,1-.41,1.39,1.39,0,0,1,1,.41A1.35,1.35,0,0,1,124.14,18.34Z"/><path class="cls-2" d="M135,16.53q0,3.18-4.32,3.18t-4.29-3.18V15.18a2,2,0,0,1,1.2-2,3,3,0,0,1-1.35-2.66A3.1,3.1,0,0,1,127,8.43a2.44,2.44,0,0,1,2-.84,2.19,2.19,0,0,1,1.49.54,1.79,1.79,0,0,1,.61,1.42,1.91,1.91,0,0,1-.55,1.37,2,2,0,0,1-1.47.59,2,2,0,0,1-.81-.15q.22,1.11,1.05,1.11h2.07V13.9h-2.07a.9.9,0,0,0-.76.41,1.59,1.59,0,0,0-.29.94v1.34c0,1.05.82,1.58,2.48,1.58s2.51-.53,2.51-1.58V7.83H135Zm-5.05-7a.91.91,0,0,0-.94-.94.9.9,0,0,0-.67.27,1,1,0,0,0,0,1.34,1,1,0,0,0,1.35,0A.92.92,0,0,0,130,9.58Z"/><path class="cls-2" d="M146.8,19.48H145v-8a2.16,2.16,0,0,0-.9-1.76,3.26,3.26,0,0,0-2-.61A2.66,2.66,0,0,0,140,10a3,3,0,0,0-.79,2.06,6.61,6.61,0,0,0,.13,1.06,7.5,7.5,0,0,1,.13,1.31v.76a3.78,3.78,0,0,1,.08-.59c0-.31.1-.61.15-.9a6.28,6.28,0,0,1,.88-2.08,2.25,2.25,0,0,1,1.78-1,2,2,0,0,1,1.38.55,1.84,1.84,0,0,1,0,2.68,1.92,1.92,0,0,1-2.69,0,17.57,17.57,0,0,0-.88,5.58h-1.81V17.61a10.55,10.55,0,0,0-.48-3,9.67,9.67,0,0,1-.48-2.56,4.1,4.1,0,0,1,1.46-3.27,4.94,4.94,0,0,1,3.38-1.2,5.61,5.61,0,0,1,2.23.47,1.66,1.66,0,0,0,.67-1.4h2A3.85,3.85,0,0,1,145.87,9a3.78,3.78,0,0,1,.93,2.54Zm-3.53-7a.9.9,0,0,0-.91-.91.8.8,0,0,0-.62.27.87.87,0,0,0-.25.64.87.87,0,0,0,.87.88.91.91,0,0,0,.65-.26A.82.82,0,0,0,143.27,12.53Z"/><path class="cls-2" d="M160.88,19.48h-2l-2.75-9-2.83,9.05h-2V12a2.49,2.49,0,0,1-.49.06,2.14,2.14,0,0,1-1.58-.65,2.2,2.2,0,0,1-.65-1.6,2.12,2.12,0,0,1,.65-1.55,2.17,2.17,0,0,1,1.58-.64,2.26,2.26,0,0,1,1.65.67,2.37,2.37,0,0,1,.65,1.7v4.35a25.13,25.13,0,0,1-.35,3.1c.43-1.78.67-2.73.73-2.87l2-6.22h1.11l2,6.22c0,.12.28,1.08.73,2.87a27.38,27.38,0,0,1-.35-3.1V7.83h1.81ZM151.8,9.81a1,1,0,0,0-2,0,1,1,0,0,0,2,0Z"/><path class="cls-2" d="M173.53,14a1.89,1.89,0,0,1-.61,1.61,2.23,2.23,0,0,1,.5,3.51,2.16,2.16,0,0,1-1.55.63,2.1,2.1,0,0,1-1.46-.53,2.22,2.22,0,0,1-.74-1.36c-.62.31-1.06.54-1.34.7a4.09,4.09,0,0,0-1.11,1h-1.84V12a2.49,2.49,0,0,1-.5.06,2.12,2.12,0,0,1-1.57-.65,2.19,2.19,0,0,1-.64-1.6,2.11,2.11,0,0,1,.64-1.55,2.15,2.15,0,0,1,1.57-.64,2.22,2.22,0,0,1,1.65.67,2.34,2.34,0,0,1,.66,1.7v7.42a10.79,10.79,0,0,1,2.11-1,5.82,5.82,0,0,0,2-1.23,2,2,0,0,0,.41-1.4V7.83h1.81Zm-7.65-4.15a1,1,0,0,0-2,0,1,1,0,0,0,2,0Zm7,7.71a1,1,0,0,0-1-1,1,1,0,0,0-1,1,.94.94,0,0,0,.3.7.92.92,0,0,0,.7.3,1,1,0,0,0,.7-.3A1,1,0,0,0,172.83,17.52Z"/><path class="cls-2" d="M183.78,17q0,2.71-3.65,2.71T176.51,17V13.17h1.81v3.94c0,.71.61,1.06,1.84,1.06s1.81-.35,1.81-1.06V13.26c0-.45-.76-.84-2.28-1.18s-2.83-.62-3.94-.84a4.82,4.82,0,0,1,.91-2.71,3.38,3.38,0,0,1,2.65-.94,8.8,8.8,0,0,1,1.81.28,8.13,8.13,0,0,0,1.64.28c.33,0,.52-.22.56-.65l1.43.38A3.48,3.48,0,0,1,184,9.27a1.9,1.9,0,0,1-1.35.43,6.67,6.67,0,0,1-1.6-.3,7.17,7.17,0,0,0-1.67-.29c-1.05,0-1.61.32-1.69,1a39.22,39.22,0,0,1,4.48,1.16c1.08.37,1.62,1,1.62,1.9Z"/><path class="cls-2" d="M185.18,0a2.47,2.47,0,0,1-.78,1.77,5.26,5.26,0,0,1-1.81.86,1.79,1.79,0,0,1,.74.68,2,2,0,0,1,.28,1,1.84,1.84,0,0,1-.56,1.35,1.92,1.92,0,0,1-2.69,0,1.87,1.87,0,0,1-.55-1.38A2.63,2.63,0,0,1,182,1.57a2.66,2.66,0,0,0,1.56-.81,1.59,1.59,0,0,0,.34-.76Zm-2.63,4.32a.81.81,0,0,0-.24-.57.78.78,0,0,0-.57-.25.77.77,0,0,0-.57.25.78.78,0,0,0-.25.57.77.77,0,0,0,.25.57.77.77,0,0,0,.57.25.78.78,0,0,0,.57-.25A.8.8,0,0,0,182.55,4.32Z"/><path class="cls-2" d="M210.19,16.85c0,1.91-1.42,2.86-4.24,2.86s-4.26-.95-4.26-2.86V12a2.58,2.58,0,0,1-.5.06,2.16,2.16,0,0,1-1.58-.65,2.19,2.19,0,0,1-.64-1.6,2.11,2.11,0,0,1,.64-1.55,2.19,2.19,0,0,1,1.58-.64,2.25,2.25,0,0,1,1.65.67,2.34,2.34,0,0,1,.66,1.7v6.92c0,.39.26.7.79.94a4.06,4.06,0,0,0,3.3,0c.52-.24.78-.55.78-.94V3.15h1.82Zm-8-7a.94.94,0,0,0-.29-.7,1,1,0,0,0-1.4,0,1,1,0,0,0-.29.7,1,1,0,0,0,.29.7,1,1,0,0,0,1.4,0A.91.91,0,0,0,202.18,9.81Z"/><path class="cls-2" d="M219.59,17.52a2,2,0,0,1-.66,1.56,2.31,2.31,0,0,1-3.18,0,2.11,2.11,0,0,1-.66-1.58,2.09,2.09,0,0,1,.66-1.57,2.2,2.2,0,0,1,1.59-.65,1.84,1.84,0,0,1,.44,0V12.79c0-.31-.65-.62-1.94-.92s-2.47-.54-3.52-.72a4.3,4.3,0,0,1,.84-2.58,2.78,2.78,0,0,1,2.28-1,7.41,7.41,0,0,1,1.68.28,6.71,6.71,0,0,0,1.54.28c.33,0,.51-.22.55-.65l1.43.38c-.35,1.19-1,1.79-1.92,1.79a6.17,6.17,0,0,1-1.51-.27,6.47,6.47,0,0,0-1.47-.26c-.86,0-1.34.33-1.46,1a31.36,31.36,0,0,1,3.78,1c1,.35,1.53.95,1.53,1.81Zm-1.26,0a1,1,0,0,0-.28-.7,1,1,0,1,0,.28.7Z"/><path class="cls-2" d="M230.11,7.88q-.15,4.65-4.36,4.65a4.32,4.32,0,0,1-2.68-.72,2.2,2.2,0,0,1-.94-1.82,2,2,0,0,1,2-2,2,2,0,0,1,1.48.6,2,2,0,0,1,.56,1.42,1.42,1.42,0,0,1-.44,1.16c1.81-.07,2.72-1.16,2.72-3.27Zm0,6.63q-.15,4.65-4.36,4.65a4.32,4.32,0,0,1-2.68-.72,2.21,2.21,0,0,1-.94-1.82,2.05,2.05,0,0,1,3.5-1.42,2,2,0,0,1,.56,1.42,1.45,1.45,0,0,1-.44,1.17q2.72-.12,2.72-3.28ZM225,10a.87.87,0,0,0-.26-.65.88.88,0,0,0-.64-.26.86.86,0,0,0-.63.26.94.94,0,0,0-.25.65.84.84,0,0,0,.88.87.91.91,0,0,0,.64-.24A.82.82,0,0,0,225,10Zm0,6.63a.89.89,0,0,0-.9-.91.86.86,0,0,0-.63.26,1,1,0,0,0-.25.65.84.84,0,0,0,.88.87.91.91,0,0,0,.64-.24A.82.82,0,0,0,225,16.62Z"/><path class="cls-2" d="M241.56,19.48h-1.81V11.65a2.25,2.25,0,0,0-.84-1.81,3,3,0,0,0-2-.7,3.05,3.05,0,0,0-2.13.83,2.66,2.66,0,0,0-.91,2,7.08,7.08,0,0,0,.48,2.08,6.48,6.48,0,0,1,.49,2,3.57,3.57,0,0,1-.06.56,10,10,0,0,1,1.9-2.31,1.72,1.72,0,0,1-1.29-.64,1.88,1.88,0,0,1,.13-2.56,1.88,1.88,0,0,1,1.36-.57,1.91,1.91,0,0,1,1.9,1.9,4.89,4.89,0,0,1-1.28,2.92,30.86,30.86,0,0,0-2,2.63,3,3,0,0,0-.44,1.49h-1.84c0-.72,0-1.38,0-2a6.41,6.41,0,0,0-.35-2.42c-.18-.51-.35-1-.53-1.56a4.83,4.83,0,0,1-.26-1.42,4.18,4.18,0,0,1,1.39-3.24,4.85,4.85,0,0,1,3.37-1.26,5,5,0,0,1,3.3,1.05,3.85,3.85,0,0,1,1.38,3.13Zm-3.77-7a.85.85,0,0,0-.25-.63.88.88,0,0,0-.63-.25.9.9,0,0,0-.63,1.51.85.85,0,0,0,.63.25.84.84,0,0,0,.63-.25A.85.85,0,0,0,237.79,12.44Z"/><path class="cls-2" d="M241.62,6.34a20.26,20.26,0,0,0-9.41-1q.36-3.91,4.27-3.91A4.71,4.71,0,0,1,240,2.79,6,6,0,0,1,241.62,6.34Zm-1.87-1.73a2.56,2.56,0,0,0-1.05-1.37,3.28,3.28,0,0,0-2-.64A3.7,3.7,0,0,0,234.9,3a1.85,1.85,0,0,0-1,1.13A7.06,7.06,0,0,1,235.48,4,15.92,15.92,0,0,1,239.75,4.61Z"/><path class="cls-2" d="M254,19.48h-1.81V11.74a2.44,2.44,0,0,0-.77-1.88,3,3,0,0,0-4.54.77,2.63,2.63,0,0,1,2,1.31,5.06,5.06,0,0,0-1.05.73,2,2,0,0,0-.38,1.26,18.5,18.5,0,0,0,.14,1.86,15.93,15.93,0,0,1,.15,1.7,2.16,2.16,0,0,1-.63,1.58,2.05,2.05,0,0,1-1.53.64,2.19,2.19,0,0,1-2.22-2.22,2.2,2.2,0,0,1,2.16-2.19.68.68,0,0,1,.44.09l-.17-1.81a1.73,1.73,0,0,1,1-1.58,2.54,2.54,0,0,0-1.78-.35,3.9,3.9,0,0,1,1.34-3,5.24,5.24,0,0,1,6.45.06,3.89,3.89,0,0,1,1.26,3Zm-7.48-2a.94.94,0,0,0-.29-.7,1,1,0,0,0-1.4,0,1,1,0,0,0,0,1.41,1,1,0,0,0,1.4,0A1,1,0,0,0,246.49,17.49Z"/><path class="cls-2" d="M263.79,19.48H262V11a1.73,1.73,0,0,0-.55-1.33,2.17,2.17,0,0,0-1.52-.51,2.09,2.09,0,0,0-1.58.64,2.44,2.44,0,0,0-.64,1.64h-1.75a4,4,0,0,1,1.15-2.79,3.88,3.88,0,0,1,2.82-1,4.48,4.48,0,0,1,2.76.84A2.92,2.92,0,0,1,263.79,11Z"/><path class="cls-2" d="M275.44,19.48h-1.81V14.43a1.46,1.46,0,0,0-1-1.35,4.07,4.07,0,0,0-1.7-.35,2.66,2.66,0,0,0-1.54.44,1.61,1.61,0,0,0-.79,1.4v.73a3.89,3.89,0,0,1,.52-.05,2.22,2.22,0,0,1,1.61.65,2.14,2.14,0,0,1,.67,1.56,2,2,0,0,1-.7,1.58,2.4,2.4,0,0,1-3.24,0,2.09,2.09,0,0,1-.68-1.6V14.78a3.16,3.16,0,0,1,1.29-2.69,4.59,4.59,0,0,1,2.83-.85,3.47,3.47,0,0,1,2.72,1V10.92a1.54,1.54,0,0,0-1.05-1.4,4.39,4.39,0,0,0-1.84-.38,3.57,3.57,0,0,0-2,.53,2.31,2.31,0,0,0-1.08,1.57H266A3.58,3.58,0,0,1,267.5,8.5a5.53,5.53,0,0,1,3.3-.91,5.78,5.78,0,0,1,2.36.47,1.81,1.81,0,0,0,.61-1.4h2.05A4.26,4.26,0,0,1,274.56,9a3.07,3.07,0,0,1,.88,2.17Zm-5.32-2a1,1,0,0,0-1-1,1,1,0,0,0-.7.29,1,1,0,0,0,0,1.41,1,1,0,0,0,.7.29,1,1,0,0,0,1-1Z"/></g></g></g></svg>