<svg xmlns="http://www.w3.org/2000/svg" viewBox="0 0 88.62 98.18"><defs><style>.cls-1{fill:#231f20;}</style></defs><title>Asset 2</title><g id="Layer_2" data-name="Layer 2"><g id="Layer_1-2" data-name="Layer 1"><path class="cls-1" d="M7.22,12.47a9.68,9.68,0,0,0,1,6.5h0l-3.77-.73c2.77-1.12,5.39-2.41,8-3.64l7.83-3.77a42.08,42.08,0,0,0,7.28-4.24A36.24,36.24,0,0,0,33.77.94h0L34.59,0l1.22.69a92.76,92.76,0,0,1,25,20.6h0l-1.55-.64a6.46,6.46,0,0,0,4-1.7,5.44,5.44,0,0,0,1.28-1.63,3.17,3.17,0,0,0,.18-2.19l6.92,4.55c-1.19.63-2.18,1.25-3.17,1.81A18.51,18.51,0,0,1,65.57,23a22.42,22.42,0,0,1-5.95,1.35l-.92.1-.63-.74h0a89,89,0,0,0-24-19.95l2-.24h0c-2.37,1.79-4.74,3.52-7.2,5.1-1.23.8-2.48,1.56-3.75,2.3s-2.58,1.39-3.84,2.07A64.36,64.36,0,0,0,14,17.32a46.69,46.69,0,0,0-6.56,5.46L5.82,24.46l-2.13-2.4h0A16.38,16.38,0,0,1,1,17.43,15.69,15.69,0,0,1,0,12Z"/><path class="cls-1" d="M15,22.26a24.67,24.67,0,0,0,9.63-1.51h0l2.57-1.16-.1,2.63-.68,18.33-2.26-1.43h0a18.65,18.65,0,0,1,5.39-1.86,33.42,33.42,0,0,1,5.51-.47c1.81,0,3.58.11,5.3.16s3.34-.07,4.73-.05L46,39a5.79,5.79,0,0,1-2.89,1c-1,.08-1.87.09-2.76.09-1.79,0-3.52-.07-5.22,0a22.56,22.56,0,0,0-9.52,1.82h0L23.28,43l.07-2.55.5-18.34,2.48,1.47h0A29.08,29.08,0,0,1,15.8,28.34Z"/><path class="cls-1" d="M48.18,18.8a39.23,39.23,0,0,0-1.11,6.32c-.23,2.13-.29,4.23-.31,6.37a52.11,52.11,0,0,0,.38,6.37c.27,2.1.67,4.22,1,6.39,1.41,8.6,2,17.67-.24,26.42-.25,1.09-.62,2.16-.95,3.24S46.22,76,45.81,77a43.41,43.41,0,0,1-3,6,31.34,31.34,0,0,1-9.24,10,26,26,0,0,1-3,1.74c-.52.25-1,.51-1.57.73s-1,.42-1.53.64A28.9,28.9,0,0,1,20.86,98a20.47,20.47,0,0,1-7.06-.19,18.9,18.9,0,0,1-3.39-1.09,13.7,13.7,0,0,1-3.22-1.82,9.37,9.37,0,0,1-2.59-3,12.42,12.42,0,0,1-1.21-3.63,12.91,12.91,0,0,1,1-7.44A17.94,17.94,0,0,1,8.71,75,54.63,54.63,0,0,1,14,70.75a131.39,131.39,0,0,1,11.19-7c3.74-2.19,7.57-4.38,11.54-6.33a181.37,181.37,0,0,1,24.53-9.92c8.21-2.85,16.63-5.54,25.06-8.1l2.3,10.72a245.12,245.12,0,0,0-25.29,4.64c-4.19,1-8.31,2-12.35,3.26s-8,2.73-11.95,4.37S31.34,66,27.49,67.93a116.52,116.52,0,0,0-11,6.4,50.84,50.84,0,0,0-5,3.71,13.91,13.91,0,0,0-3.55,4.37,9,9,0,0,0-.87,5.22,8.27,8.27,0,0,0,.77,2.53,5.74,5.74,0,0,0,1.57,1.89,10.71,10.71,0,0,0,2.41,1.38,14.51,14.51,0,0,0,2.76.94,16.61,16.61,0,0,0,5.85.24,25.32,25.32,0,0,0,5.89-1.53l1.47-.59c.47-.19.93-.4,1.38-.62a24.58,24.58,0,0,0,2.63-1.52,28.14,28.14,0,0,0,8.29-8.93,40.92,40.92,0,0,0,2.79-5.58c.39-1,.75-2,1.09-3s.65-2,.88-3c2.08-8.11,1.61-16.73.24-25.15-.33-2.11-.74-4.25-1.06-6.44s-.68-4.35-1-6.53-.57-4.41-.83-6.6-.54-4.37-1-6.67Z"/></g></g></svg>